<?xml version="1.0" encoding="UTF-8" standalone="no"?>
<!-- Created with Inkscape (http://www.inkscape.org/) -->

<svg
   width="100"
   height="100"
   viewBox="0 0 26.458333 26.458333"
   version="1.1"
   id="svg1"
   xmlns="http://www.w3.org/2000/svg"
   xmlns:svg="http://www.w3.org/2000/svg">
  <defs
     id="defs1" />
  <g
     id="layer1"
     transform="translate(4.7711195,0.88233127)">
    <g
       id="g15"
       transform="translate(-0.28375968,-0.52916666)">
      <path
         id="rect12"
         style="display:none;fill:#ff0000;stroke-width:0.2454"
         d="m 11.274247,2.6019083 c -0.339891,0 -0.613399,0.2735083 -0.613399,0.6133993 V 4.2214477 H 5.8575235 c -1.0254482,0 -1.8510498,0.8256016 -1.8510498,1.8510498 0,1.0254482 0.8256016,1.8510498 1.8510498,1.8510498 H 20.785811 c 1.025448,0 1.850533,-0.8256016 1.850533,-1.8510498 0,-1.0254482 -0.825085,-1.8510498 -1.850533,-1.8510498 H 15.982487 V 3.2153076 c 0,-0.339891 -0.273509,-0.6133993 -0.613399,-0.6133993 z M 7.472412,8.2708129 c -1.2177195,0 -2.2828395,0.9830161 -2.1983154,2.1977991 l 0.8589338,12.344619 c 0.084524,1.214782 0.8169971,2.12134 2.034707,2.116513 l 10.3178316,-0.0409 c 1.21771,-0.0048 1.777754,-0.902338 1.870589,-2.116513 L 21.296891,10.468612 C 21.389726,9.2544359 20.316812,8.2708129 19.099092,8.2708129 Z" />
      <path
         id="rect12-5"
         style="fill:#ff0000;stroke-width:0.2454"
         d="m 6.6946446,1.7120746 c -0.339891,0 -0.613399,0.2735083 -0.613399,0.6133994 v 1.00614 H 1.2779211 c -1.0254482,0 -1.8510498,0.8256016 -1.8510498,1.8510498 0,1.0254483 0.8256016,1.8510498 1.8510498,1.8510498 H 16.206209 c 1.025448,0 1.850533,-0.8256015 1.850533,-1.8510498 0,-1.0254482 -0.825085,-1.8510498 -1.850533,-1.8510498 h -4.803324 v -1.00614 c 0,-0.3398911 -0.273509,-0.6133994 -0.613399,-0.6133994 z m -3.801835,5.6689046 c -1.2177195,0 -2.2828395,0.9830162 -2.1983154,2.1977992 L 1.553428,21.923397 c 0.084524,1.214782 0.8169971,2.12134 2.034707,2.116513 l 10.317832,-0.0409 c 1.21771,-0.0048 1.777754,-0.902338 1.870589,-2.116513 L 16.717289,9.5787784 C 16.810124,8.3646023 15.73721,7.3809792 14.51949,7.3809792 Z" />
      <rect
         style="fill:#800000;stroke-width:0.344192"
         id="rect15-7-6"
         width="2.5451124"
         height="12.783402"
         x="7.4692507"
         y="10.583333"
         ry="0.75196671" />
      <rect
         style="fill:#800000;stroke-width:0.344192"
         id="rect15-7-6-6"
         width="2.5451124"
         height="12.783402"
         x="2.706661"
         y="10.583333"
         ry="0.75196671" />
      <rect
         style="fill:#800000;stroke-width:0.344192"
         id="rect15-7-6-6-9"
         width="2.5451124"
         height="12.783402"
         x="12.231661"
         y="10.583333"
         ry="0.75196671" />
    </g>
  </g>
</svg>
